<mxfile host="app.diagrams.net" modified="2024-01-21T14:08:45.675Z" agent="Mozilla/5.0 (Windows NT 10.0; Win64; x64) AppleWebKit/537.36 (KHTML, like Gecko) Chrome/120.0.0.0 Safari/537.36" etag="i_BqtIb_d_8cwARlNtMw" version="22.1.18" type="github">
  <diagram name="Страница — 1" id="XyJWHj1xu7C1VC_zFVd3">
    <mxGraphModel dx="1290" dy="569" grid="1" gridSize="10" guides="1" tooltips="1" connect="1" arrows="1" fold="1" page="1" pageScale="1" pageWidth="827" pageHeight="1169" math="0" shadow="0">
      <root>
        <mxCell id="0" />
        <mxCell id="1" parent="0" />
        <mxCell id="3sMrROEz1MSGEg1qZsZV-1" value="Chef" style="ellipse;whiteSpace=wrap;html=1;aspect=fixed;" vertex="1" parent="1">
          <mxGeometry x="340" y="200" width="80" height="80" as="geometry" />
        </mxCell>
        <mxCell id="3sMrROEz1MSGEg1qZsZV-2" value="Cook" style="ellipse;whiteSpace=wrap;html=1;aspect=fixed;" vertex="1" parent="1">
          <mxGeometry x="340" y="390" width="80" height="80" as="geometry" />
        </mxCell>
        <mxCell id="3sMrROEz1MSGEg1qZsZV-3" value="Administrator" style="ellipse;whiteSpace=wrap;html=1;aspect=fixed;" vertex="1" parent="1">
          <mxGeometry x="150" y="200" width="80" height="80" as="geometry" />
        </mxCell>
        <mxCell id="3sMrROEz1MSGEg1qZsZV-4" value="Dishwasher" style="ellipse;whiteSpace=wrap;html=1;aspect=fixed;" vertex="1" parent="1">
          <mxGeometry x="530" y="200" width="80" height="80" as="geometry" />
        </mxCell>
        <mxCell id="3sMrROEz1MSGEg1qZsZV-5" value="" style="endArrow=classic;html=1;rounded=0;entryX=1;entryY=0.5;entryDx=0;entryDy=0;exitX=0;exitY=0.5;exitDx=0;exitDy=0;" edge="1" parent="1" source="3sMrROEz1MSGEg1qZsZV-1" target="3sMrROEz1MSGEg1qZsZV-3">
          <mxGeometry width="50" height="50" relative="1" as="geometry">
            <mxPoint x="390" y="440" as="sourcePoint" />
            <mxPoint x="440" y="390" as="targetPoint" />
          </mxGeometry>
        </mxCell>
        <mxCell id="3sMrROEz1MSGEg1qZsZV-6" value="" style="endArrow=classic;html=1;rounded=0;entryX=0;entryY=0.5;entryDx=0;entryDy=0;exitX=1;exitY=0.5;exitDx=0;exitDy=0;" edge="1" parent="1" source="3sMrROEz1MSGEg1qZsZV-1" target="3sMrROEz1MSGEg1qZsZV-4">
          <mxGeometry width="50" height="50" relative="1" as="geometry">
            <mxPoint x="390" y="440" as="sourcePoint" />
            <mxPoint x="440" y="390" as="targetPoint" />
          </mxGeometry>
        </mxCell>
        <mxCell id="3sMrROEz1MSGEg1qZsZV-7" value="" style="endArrow=classic;html=1;rounded=0;exitX=0.5;exitY=1;exitDx=0;exitDy=0;" edge="1" parent="1" source="3sMrROEz1MSGEg1qZsZV-1" target="3sMrROEz1MSGEg1qZsZV-2">
          <mxGeometry width="50" height="50" relative="1" as="geometry">
            <mxPoint x="390" y="440" as="sourcePoint" />
            <mxPoint x="440" y="390" as="targetPoint" />
          </mxGeometry>
        </mxCell>
        <mxCell id="3sMrROEz1MSGEg1qZsZV-11" value="&lt;h1&gt;Administrator&lt;br&gt;&lt;/h1&gt;&lt;p&gt;Принимает заказы&lt;/p&gt;&lt;p&gt;Принимает оплату&lt;/p&gt;" style="text;html=1;strokeColor=none;fillColor=none;spacing=5;spacingTop=-20;whiteSpace=wrap;overflow=hidden;rounded=0;" vertex="1" parent="1">
          <mxGeometry x="10" y="20" width="190" height="120" as="geometry" />
        </mxCell>
        <mxCell id="3sMrROEz1MSGEg1qZsZV-12" value="&lt;h1&gt;Chef&lt;br&gt;&lt;/h1&gt;&lt;p&gt;Разрабатывает меню&lt;/p&gt;&lt;p&gt;Заказывает продукты&lt;/p&gt;&lt;p&gt;Распределяет заказ (chef and cook)&lt;/p&gt;&lt;p&gt;Готовит&lt;/p&gt;&lt;p&gt;Выдает готовые блюда&lt;/p&gt;" style="text;html=1;strokeColor=none;fillColor=none;spacing=5;spacingTop=-20;whiteSpace=wrap;overflow=hidden;rounded=0;" vertex="1" parent="1">
          <mxGeometry x="260" y="20" width="250" height="180" as="geometry" />
        </mxCell>
        <mxCell id="3sMrROEz1MSGEg1qZsZV-14" value="&lt;h1&gt;Dishwasher&lt;br&gt;&lt;/h1&gt;&lt;p&gt;Обеспечивает чистой посудой и инвентарем.&lt;/p&gt;" style="text;html=1;strokeColor=none;fillColor=none;spacing=5;spacingTop=-20;whiteSpace=wrap;overflow=hidden;rounded=0;" vertex="1" parent="1">
          <mxGeometry x="600" y="20" width="190" height="120" as="geometry" />
        </mxCell>
        <mxCell id="3sMrROEz1MSGEg1qZsZV-15" value="&lt;h1&gt;Cook&lt;br&gt;&lt;/h1&gt;&lt;p&gt;Готовит&lt;/p&gt;" style="text;html=1;strokeColor=none;fillColor=none;spacing=5;spacingTop=-20;whiteSpace=wrap;overflow=hidden;rounded=0;" vertex="1" parent="1">
          <mxGeometry x="600" y="360" width="190" height="120" as="geometry" />
        </mxCell>
      </root>
    </mxGraphModel>
  </diagram>
</mxfile>
